<svg width="96" height="96" viewBox="0 0 96 96" fill="none" xmlns="http://www.w3.org/2000/svg">
<path d="M35.2526 33.2526C35.7453 32.7599 36.4591 32.5589 37.1364 32.7223L55.1452 37.07C55.4374 37.1405 55.9729 37.2474 56.4704 37.5134L56.6803 37.6374L56.8366 37.7458C57.1929 38.0082 57.4938 38.3394 57.7214 38.7204C58.0579 39.2838 58.1608 39.9402 58.2282 40.277L59.4841 46.5573C59.6943 46.5668 59.904 46.5948 60.11 46.6442L60.363 46.7155L60.5456 46.7819C60.9579 46.9469 61.2729 47.181 61.5046 47.3776C61.7513 47.5871 62.016 47.8538 62.2565 48.0944L63.2389 49.0768C63.4795 49.3174 63.7463 49.5821 63.9557 49.8288C64.1524 50.0604 64.3864 50.3755 64.5514 50.7878L64.6178 50.9704L64.6891 51.2233C64.8319 51.819 64.8082 52.4442 64.6178 53.03C64.4543 53.5333 64.1804 53.9059 63.9557 54.1706C63.7462 54.4174 63.4796 54.6819 63.2389 54.9225L56.9225 61.2389C56.6819 61.4796 56.4174 61.7462 56.1706 61.9557C55.9059 62.1804 55.5333 62.4543 55.03 62.6178C54.3606 62.8353 53.6397 62.8352 52.9704 62.6178C52.4671 62.4543 52.0934 62.1804 51.8288 61.9557C51.5821 61.7463 51.3174 61.4795 51.0768 61.2389L50.0944 60.2565C49.8538 60.016 49.5871 59.7513 49.3776 59.5046C49.1529 59.2399 48.879 58.8663 48.7155 58.363C48.6225 58.0767 48.5707 57.7811 48.5573 57.4841L42.277 56.2282C41.9402 56.1608 41.2838 56.0579 40.7204 55.7214C40.2849 55.4613 39.9144 55.1052 39.6374 54.6803C39.279 54.1307 39.1506 53.4791 39.07 53.1452L34.7223 35.1364C34.5589 34.4591 34.7599 33.7453 35.2526 33.2526ZM52.8288 57.3327C52.8584 57.3624 52.8893 57.3942 52.9225 57.4274L53.9059 58.4108C53.9388 58.4437 53.9703 58.4742 53.9997 58.5036C54.0292 58.4741 54.0613 58.4439 54.0944 58.4108L60.4108 52.0944C60.4439 52.0613 60.4741 52.0292 60.5036 51.9997C60.4742 51.9703 60.4437 51.9388 60.4108 51.9059L59.4274 50.9225C59.3942 50.8893 59.3624 50.8584 59.3327 50.8288L52.8288 57.3327ZM49.3337 46.6667C49.3337 46.2985 49.0349 45.9997 48.6667 45.9997C48.4826 45.9997 48.3166 46.0753 48.196 46.196C48.1939 46.1981 48.1913 46.1997 48.1891 46.2018C48.0722 46.3219 47.9997 46.4858 47.9997 46.6667C47.9997 47.0349 48.2985 47.3337 48.6667 47.3337C49.0349 47.3337 49.3337 47.0349 49.3337 46.6667ZM53.3337 46.6667C53.3337 49.244 51.244 51.3337 48.6667 51.3337C46.0893 51.3337 43.9997 49.244 43.9997 46.6667C43.9997 46.1168 44.0955 45.5892 44.2702 45.0993L40.278 41.1071L42.9577 52.2067C42.9647 52.2357 42.971 52.263 42.9772 52.2887C43.0036 52.294 43.0314 52.3004 43.0612 52.3063L50.6755 53.8288L55.8288 48.6755L54.3063 41.0612C54.3004 41.0314 54.294 41.0036 54.2887 40.9772C54.263 40.971 54.2357 40.9647 54.2067 40.9577L43.1071 38.278L47.0993 42.2702C47.5892 42.0955 48.1168 41.9997 48.6667 41.9997C51.244 41.9997 53.3337 44.0893 53.3337 46.6667Z" fill="black"/>
<path d="M48 73.5C49.1044 73.5001 49.9999 74.3956 50 75.5V84.5352L57.8262 80.0176C58.7826 79.4659 60.0055 79.7937 60.5576 80.75C61.1097 81.7064 60.7824 82.93 59.8262 83.4824L51 88.5771C49.1437 89.6488 46.8563 89.6487 45 88.5771L36.1748 83.4824C35.2183 82.9301 34.8911 81.7066 35.4434 80.75C35.9957 79.7938 37.2184 79.4656 38.1748 80.0176L46 84.5352V75.5C46.0001 74.3956 46.8956 73.5001 48 73.5ZM13.3594 53.5C14.4638 53.5002 15.3594 54.3956 15.3594 55.5V65.6904C15.3594 66.405 15.7406 67.0656 16.3594 67.4229L25.1846 72.5176C26.1409 73.0699 26.469 74.2935 25.917 75.25C25.3648 76.2065 24.1411 76.5344 23.1846 75.9824L14.3594 70.8867C12.503 69.8149 11.3594 67.834 11.3594 65.6904V55.5C11.3594 54.3954 12.2548 53.5 13.3594 53.5ZM82.6416 53.5C83.7459 53.5003 84.6416 54.3956 84.6416 55.5V65.6904C84.6416 67.8339 83.4978 69.8149 81.6416 70.8867L72.8164 75.9824C71.8599 76.5347 70.6363 76.2065 70.084 75.25C69.5317 74.2934 69.8598 73.0699 70.8164 72.5176L79.6416 67.4229C80.2602 67.0655 80.6416 66.4048 80.6416 65.6904V55.5C80.6416 54.3954 81.537 53.5 82.6416 53.5ZM23.1846 20.0176C24.1411 19.4656 25.3648 19.7935 25.917 20.75C26.469 21.7065 26.1409 22.9301 25.1846 23.4824L17.3594 27.999L25.1846 32.5176C26.1408 33.0699 26.469 34.2936 25.917 35.25C25.3648 36.2065 24.1411 36.5344 23.1846 35.9824L15.3594 31.4639V43C15.3594 44.1044 14.4638 44.9998 13.3594 45C12.2548 45 11.3594 44.1046 11.3594 43V30.3096C11.3594 28.166 12.503 26.1851 14.3594 25.1133L23.1846 20.0176ZM70.084 20.75C70.6363 19.7935 71.8599 19.4653 72.8164 20.0176L81.6416 25.1133C83.4978 26.1851 84.6416 28.1661 84.6416 30.3096V40.5C84.6416 41.6044 83.7459 42.4997 82.6416 42.5C81.537 42.5 80.6416 41.6046 80.6416 40.5V31.4639L72.8164 35.9824C71.8599 36.5347 70.6363 36.2065 70.084 35.25C69.5317 34.2934 69.8598 33.0699 70.8164 32.5176L78.6406 27.999L70.8164 23.4824C69.8598 22.9301 69.5317 21.7066 70.084 20.75ZM45 7.42285C46.8563 6.35125 49.1437 6.35123 51 7.42285L59.8262 12.5176C60.7824 13.07 61.1097 14.2936 60.5576 15.25C60.0055 16.2063 58.7826 16.5341 57.8262 15.9824L49 10.8867C48.3813 10.5297 47.6186 10.5297 47 10.8867L38.1748 15.9824C37.2184 16.5344 35.9957 16.2062 35.4434 15.25C34.8911 14.2934 35.2183 13.0699 36.1748 12.5176L45 7.42285Z" fill="black"/>
</svg>
