<svg width="20" height="20" viewBox="0 0 20 20" fill="none" xmlns="http://www.w3.org/2000/svg">
<path d="M8.33331 15V5C8.33331 4.22343 8.33331 3.83515 8.20645 3.52886C8.03729 3.12048 7.71283 2.79602 7.30445 2.62687C6.99817 2.5 6.60988 2.5 5.83331 2.5C5.05674 2.5 4.66846 2.5 4.36217 2.62687C3.95379 2.79602 3.62934 3.12048 3.46018 3.52886C3.33331 3.83515 3.33331 4.22343 3.33331 5V15C3.33331 15.7766 3.33331 16.1649 3.46018 16.4711C3.62934 16.8795 3.95379 17.204 4.36217 17.3731C4.66846 17.5 5.05674 17.5 5.83331 17.5C6.60988 17.5 6.99817 17.5 7.30445 17.3731C7.71283 17.204 8.03729 16.8795 8.20645 16.4711C8.33331 16.1649 8.33331 15.7766 8.33331 15Z" stroke="#262626" stroke-width="1.25" stroke-linecap="round" stroke-linejoin="round"/>
<path d="M16.6666 11.6667V5C16.6666 4.22343 16.6666 3.83515 16.5398 3.52886C16.3706 3.12048 16.0462 2.79602 15.6378 2.62687C15.3315 2.5 14.9432 2.5 14.1666 2.5C13.3901 2.5 13.0018 2.5 12.6955 2.62687C12.2871 2.79602 11.9627 3.12048 11.7935 3.52886C11.6666 3.83515 11.6666 4.22343 11.6666 5V11.6667C11.6666 12.4432 11.6666 12.8315 11.7935 13.1378C11.9627 13.5462 12.2871 13.8706 12.6955 14.0398C13.0018 14.1667 13.3901 14.1667 14.1666 14.1667C14.9432 14.1667 15.3315 14.1667 15.6378 14.0398C16.0462 13.8706 16.3706 13.5462 16.5398 13.1378C16.6666 12.8315 16.6666 12.4432 16.6666 11.6667Z" stroke="#262626" stroke-width="1.25" stroke-linecap="round" stroke-linejoin="round"/>
</svg>
