<svg width="20" height="20" viewBox="0 0 20 20" fill="none" xmlns="http://www.w3.org/2000/svg">
<path d="M11.6667 8.3335C12.4432 8.3335 12.8315 8.3335 13.1378 8.20663C13.5462 8.03747 13.8706 7.71301 14.0398 7.30463C14.1667 6.99835 14.1667 6.61007 14.1667 5.8335C14.1667 5.05693 14.1667 4.66864 14.0398 4.36236C13.8706 3.95398 13.5462 3.62952 13.1378 3.46036C12.8315 3.3335 12.4432 3.3335 11.6667 3.3335L5 3.3335C4.22343 3.3335 3.83515 3.3335 3.52886 3.46036C3.12048 3.62952 2.79602 3.95398 2.62687 4.36236C2.5 4.66864 2.5 5.05693 2.5 5.8335C2.5 6.61006 2.5 6.99835 2.62687 7.30463C2.79602 7.71301 3.12048 8.03747 3.52886 8.20663C3.83515 8.3335 4.22343 8.3335 5 8.3335L11.6667 8.3335Z" stroke="#007EF4" stroke-width="1.25" stroke-linecap="round" stroke-linejoin="round"/>
<path d="M15 16.6668C15.7766 16.6668 16.1649 16.6668 16.4711 16.54C16.8795 16.3708 17.204 16.0463 17.3731 15.638C17.5 15.3317 17.5 14.9434 17.5 14.1668C17.5 13.3903 17.5 13.002 17.3731 12.6957C17.204 12.2873 16.8795 11.9629 16.4711 11.7937C16.1649 11.6668 15.7766 11.6668 15 11.6668H5C4.22343 11.6668 3.83515 11.6668 3.52886 11.7937C3.12048 11.9629 2.79602 12.2873 2.62687 12.6957C2.5 13.002 2.5 13.3903 2.5 14.1668C2.5 14.9434 2.5 15.3317 2.62687 15.638C2.79602 16.0463 3.12048 16.3708 3.52886 16.54C3.83515 16.6668 4.22343 16.6668 5 16.6668L15 16.6668Z" stroke="#007EF4" stroke-width="1.25" stroke-linecap="round" stroke-linejoin="round"/>
</svg>
